<?xml version="1.0" standalone="no"?><!DOCTYPE svg PUBLIC "-//W3C//DTD SVG 1.1//EN" "http://www.w3.org/Graphics/SVG/1.1/DTD/svg11.dtd"><svg t="1580982351696" class="icon" viewBox="0 0 1024 1024" version="1.1" xmlns="http://www.w3.org/2000/svg" p-id="3897" xmlns:xlink="http://www.w3.org/1999/xlink" width="48" height="48"><defs><style type="text/css"></style></defs><path d="M510.7 456.5c-108.16 0-196.13-87.99-196.13-196.15S402.55 64.22 510.7 64.22s196.15 87.97 196.15 196.13S618.86 456.5 510.7 456.5z m0-298.76c-56.58 0-102.61 46.03-102.61 102.61 0 56.6 46.03 102.63 102.61 102.63 56.6 0 102.63-46.03 102.63-102.63 0-56.58-46.02-102.61-102.63-102.61zM871.47 959.54h-48.56c-25.82 0-46.76-20.94-46.76-46.76 0-25.82 20.94-46.76 46.76-46.76h48.15c-0.16-0.18 0.41-1 0.41-2.53v-28.33c0-137.31-104.89-249.03-233.8-249.03H403.78c-128.91 0-233.8 111.72-233.8 249.03v28.33c0 2.01 0.96 2.79 0.98 2.79l44.45-0.25c25.82 0 46.76 20.94 46.76 46.76 0 25.82-20.94 46.76-46.76 46.76h-45.44c-51.58 0-93.52-43.08-93.52-96.05v-28.33c0-188.89 146.83-342.55 327.32-342.55h233.89c180.49 0 327.32 153.66 327.32 342.55v28.33c0.01 52.95-41.93 96.04-93.51 96.04z" fill="#515D8C" p-id="3898"></path><path d="M666.19 959.56H373.3c-44.96 0-81.51-36.55-81.51-81.51V729.71c0-44.96 36.55-81.51 81.51-81.51h292.89c44.96 0 81.51 36.55 81.51 81.51v148.34c0 44.95-36.55 81.51-81.51 81.51z m-280.88-93.52h268.87V741.72H385.31v124.32z" fill="#32DB7C" p-id="3899"></path></svg>